<svg width="16" height="18" viewBox="0 0 16 18" fill="none" xmlns="http://www.w3.org/2000/svg">
<path d="M11.7764 0C11.822 0 11.8677 0 11.916 0C12.028 1.2694 11.4997 2.21789 10.8577 2.90476C10.2277 3.58688 9.36507 4.24845 7.96983 4.14807C7.87676 2.89685 8.4059 2.01871 9.04707 1.33342C9.64171 0.69477 10.7319 0.126466 11.7764 0Z" fill="black"/>
<path d="M16 13.2125C16 13.2251 16 13.2362 16 13.2481C15.6079 14.3372 15.0486 15.2707 14.366 16.137C13.743 16.9235 12.9794 17.9818 11.6161 17.9818C10.438 17.9818 9.6555 17.2871 8.44813 17.2681C7.17096 17.2491 6.4686 17.849 5.30087 18C5.1673 18 5.03372 18 4.90273 18C4.04524 17.8862 3.35323 17.2633 2.84908 16.7021C1.36249 15.0439 0.213724 12.9019 0 10.1607C0 9.89198 0 9.62403 0 9.35529C0.090488 7.39349 1.12981 5.79844 2.51126 5.02542C3.24033 4.61441 4.24259 4.26426 5.35861 4.42076C5.83691 4.48874 6.32554 4.63891 6.75385 4.78751C7.15975 4.93058 7.66735 5.1843 8.14823 5.17086C8.47398 5.16216 8.79802 5.00645 9.12636 4.89659C10.0881 4.57805 11.0309 4.21288 12.2736 4.3844C13.7671 4.59149 14.8271 5.2001 15.4821 6.13911C14.2187 6.87656 13.2199 7.98788 13.3905 9.88565C13.5422 11.6095 14.6349 12.6181 16 13.2125Z" fill="black"/>
</svg>
