<svg width="26" height="24" viewBox="0 0 26 24" fill="none" xmlns="http://www.w3.org/2000/svg">
<path d="M4.58233 5.39499L1 1.06634C5.47792 1.06634 14.7486 0.91708 16.5398 1.06633C18.331 1.21558 21.3163 2.11121 22.0626 5.24575C23.1074 10.1715 20.7192 12.1119 19.3758 13.0075C18.928 12.5597 18.0324 11.3656 16.5398 9.5744C19.3758 7.78324 17.7339 5.39499 15.7935 5.39499H4.58233Z" fill="black" stroke="black" stroke-width="0.298528"/>
<path d="M8.78222 18.7734H4.28796L4.28797 10.0225H14.4502L22.2325 18.7734H16.5605L12.659 14.3511H8.92742L8.78222 18.7734Z" fill="black" stroke="black" stroke-width="0.298528"/>
<path d="M8.88844 22.9779H4.21228V20.144H8.88844V22.9779Z" fill="#8C3AD3"/>
<path d="M19.9337 23.0413L17.4781 20.144H23.3952L26 23.0413H19.9337Z" fill="#3597D5"/>
</svg>
