<svg width="28" height="28" viewBox="0 0 28 28" fill="none" xmlns="http://www.w3.org/2000/svg">
<path fill-rule="evenodd" clip-rule="evenodd" d="M12.9167 4.25H15.0833C20.4681 4.25 24.8333 8.61522 24.8333 14C24.8333 19.3848 20.4681 23.75 15.0833 23.75H7.5C5.10677 23.75 3.16667 21.8099 3.16667 19.4167V14C3.16667 8.61522 7.53189 4.25 12.9167 4.25ZM14 15.0833C14.5983 15.0833 15.0833 14.5983 15.0833 14C15.0833 13.4017 14.5983 12.9167 14 12.9167C13.4017 12.9167 12.9167 13.4017 12.9167 14C12.9167 14.5983 13.4017 15.0833 14 15.0833ZM19.4167 14C19.4167 14.5983 18.9316 15.0833 18.3333 15.0833C17.735 15.0833 17.25 14.5983 17.25 14C17.25 13.4017 17.735 12.9167 18.3333 12.9167C18.9316 12.9167 19.4167 13.4017 19.4167 14ZM9.66667 15.0833C10.265 15.0833 10.75 14.5983 10.75 14C10.75 13.4017 10.265 12.9167 9.66667 12.9167C9.06836 12.9167 8.58333 13.4017 8.58333 14C8.58333 14.5983 9.06836 15.0833 9.66667 15.0833Z" fill="#1B2133"/>
</svg>
