<svg width="14" height="14" viewBox="0 0 14 14" fill="none" xmlns="http://www.w3.org/2000/svg">
<path d="M1 3.66675H3M3 3.66675C3 4.77132 3.89543 5.66675 5 5.66675C6.10457 5.66675 7 4.77132 7 3.66675C7 2.56218 6.10457 1.66675 5 1.66675C3.89543 1.66675 3 2.56218 3 3.66675ZM1 10.3334H5M11 10.3334H13M11 10.3334C11 11.438 10.1046 12.3334 9 12.3334C7.89543 12.3334 7 11.438 7 10.3334C7 9.22884 7.89543 8.33341 9 8.33341C10.1046 8.33341 11 9.22884 11 10.3334ZM9 3.66675H13" stroke="#28303F" stroke-width="1.5" stroke-linecap="round"/>
</svg>
