<svg width="18" height="18" viewBox="0 0 18 18" fill="none" xmlns="http://www.w3.org/2000/svg">
<g clip-path="url(#clip0_2_32)">
<path d="M13.3594 9C13.3601 10.0259 12.9987 11.0191 12.3389 11.8047C11.6791 12.5902 10.7633 13.1177 9.75269 13.2943C8.74211 13.4708 7.70166 13.285 6.81462 12.7697C5.92758 12.2543 5.25088 11.4424 4.90373 10.4771L2.41028 12.4718C3.1856 13.9456 4.43239 15.1172 5.95157 15.7994C7.47075 16.4816 9.17471 16.6351 10.7914 16.2355C12.408 15.8358 13.8441 14.9059 14.8704 13.5944C15.8967 12.2829 16.4539 10.6653 16.4531 9" fill="#00AC47"/>
<path d="M13.3594 9C13.3588 9.69356 13.1925 10.377 12.8744 10.9932C12.5562 11.6095 12.0954 12.1409 11.5303 12.543L13.9954 14.5151C14.7684 13.8191 15.3866 12.9686 15.81 12.0185C16.2333 11.0685 16.4525 10.0401 16.4531 9" fill="#4285F4"/>
<path d="M4.64062 9C4.6417 8.49609 4.73073 7.99623 4.90371 7.52293L2.41026 5.52819C1.8433 6.59761 1.54688 7.78959 1.54688 9C1.54687 10.2104 1.8433 11.4024 2.41026 12.4718L4.90371 10.4771C4.73073 10.0038 4.6417 9.50391 4.64062 9Z" fill="#FFBA00"/>
<path d="M9.00002 4.64063C9.92244 4.64088 10.8207 4.93566 11.5639 5.48201L13.8476 3.35053C12.9999 2.6196 11.998 2.08955 10.9168 1.79996C9.83551 1.51036 8.70282 1.46869 7.60321 1.67805C6.50361 1.88742 5.46548 2.34241 4.56631 3.00908C3.66713 3.67574 2.93012 4.53687 2.41028 5.52819L4.90373 7.52293C5.20782 6.67995 5.76414 5.95107 6.49704 5.43537C7.22994 4.91968 8.10387 4.64218 9.00002 4.64063Z" fill="#EA4435"/>
<path d="M16.4531 8.4375V9L15.1875 10.9688H9.28125V7.875H15.8906C16.0398 7.875 16.1829 7.93426 16.2884 8.03975C16.3939 8.14524 16.4531 8.28832 16.4531 8.4375Z" fill="#4285F4"/>
</g>
<defs>
<clipPath id="clip0_2_32">
<rect width="18" height="18" fill="white"/>
</clipPath>
</defs>
</svg>
