<svg width="20" height="22" viewBox="0 0 20 22" fill="none" xmlns="http://www.w3.org/2000/svg">
<path fill-rule="evenodd" clip-rule="evenodd" d="M20 8.96536V17.5635C20 20.0137 18.0102 22 15.5556 22H4.44444C1.98985 22 0 20.0137 0 17.5635V8.96536C0 7.63331 0.599606 6.37175 1.63318 5.52918L7.18873 1.00028C8.82478 -0.333426 11.1752 -0.333428 12.8113 1.00028L18.3668 5.52917C19.4004 6.37175 20 7.63331 20 8.96536ZM7.77778 16.775C7.31754 16.775 6.94444 17.1444 6.94444 17.6C6.94444 18.0556 7.31754 18.425 7.77778 18.425H12.2222C12.6825 18.425 13.0556 18.0556 13.0556 17.6C13.0556 17.1444 12.6825 16.775 12.2222 16.775H7.77778Z" fill="#1B2133"/>
</svg>
