<svg width="28" height="28" viewBox="0 0 28 28" fill="none" xmlns="http://www.w3.org/2000/svg">
<path fill-rule="evenodd" clip-rule="evenodd" d="M24 11.9654V20.5635C24 23.0137 22.0102 25 19.5556 25H8.44444C5.98985 25 4 23.0137 4 20.5635V11.9654C4 10.6333 4.59961 9.37175 5.63318 8.52918L11.1887 4.00028C12.8248 2.66657 15.1752 2.66657 16.8113 4.00028L22.3668 8.52917C23.4004 9.37175 24 10.6333 24 11.9654ZM11.7778 19.775C11.3175 19.775 10.9444 20.1444 10.9444 20.6C10.9444 21.0556 11.3175 21.425 11.7778 21.425H16.2222C16.6825 21.425 17.0556 21.0556 17.0556 20.6C17.0556 20.1444 16.6825 19.775 16.2222 19.775H11.7778Z" fill="#1B2133"/>
</svg>
