<svg width="22" height="24" viewBox="0 0 22 24" fill="none" xmlns="http://www.w3.org/2000/svg">
<path fill-rule="evenodd" clip-rule="evenodd" d="M21 9.96536V18.5635C21 21.0137 19.0102 23 16.5556 23H5.44444C2.98985 23 1 21.0137 1 18.5635V9.96536C1 8.63331 1.59961 7.37175 2.63318 6.52918L8.18873 2.00028C9.82478 0.666574 12.1752 0.666572 13.8113 2.00028L19.3668 6.52918C20.4004 7.37175 21 8.63331 21 9.96536ZM8.77778 17.775C8.31754 17.775 7.94444 18.1444 7.94444 18.6C7.94444 19.0556 8.31754 19.425 8.77778 19.425H13.2222C13.6825 19.425 14.0556 19.0556 14.0556 18.6C14.0556 18.1444 13.6825 17.775 13.2222 17.775H8.77778Z" stroke="#999999" stroke-width="1.5" stroke-linejoin="round"/>
</svg>
