<svg width="22" height="24" viewBox="0 0 22 24" fill="none" xmlns="http://www.w3.org/2000/svg">
<path d="M2.19808 14.1934L1.62651 13.7078H1.62651L2.19808 14.1934ZM3.22389 11.8116L2.47866 11.7272L3.22389 11.8116ZM18.7761 11.8116L19.5214 11.7272L18.7761 11.8116ZM19.8019 14.1934L20.3735 13.7078L19.8019 14.1934ZM18.3738 8.25971L17.6285 8.34413L18.3738 8.25971ZM3.62625 8.25971L4.37148 8.34413L3.62625 8.25971ZM15.2023 20.4299C15.3477 20.042 15.1511 19.6097 14.7632 19.4644C14.3753 19.319 13.9431 19.5156 13.7977 19.9035L15.2023 20.4299ZM8.2023 19.9035C8.05694 19.5156 7.62467 19.319 7.2368 19.4644C6.84893 19.6097 6.65234 20.042 6.79771 20.4299L8.2023 19.9035ZM18.1982 17.0833H3.80183V18.5833H18.1982V17.0833ZM17.6285 8.34413L18.0309 11.896L19.5214 11.7272L19.119 8.17529L17.6285 8.34413ZM3.96912 11.896L4.37148 8.34413L2.88101 8.17529L2.47866 11.7272L3.96912 11.896ZM2.76965 14.679C3.43547 13.8953 3.8526 12.9246 3.96912 11.896L2.47866 11.7272C2.39523 12.4637 2.09695 13.1541 1.62651 13.7078L2.76965 14.679ZM18.0309 11.896C18.1474 12.9246 18.5645 13.8953 19.2304 14.679L20.3735 13.7078C19.9031 13.1541 19.6048 12.4637 19.5214 11.7272L18.0309 11.896ZM3.80183 17.0833C2.65349 17.0833 1.94961 15.6442 2.76965 14.679L1.62651 13.7078C0.035267 15.5807 1.28842 18.5833 3.80183 18.5833V17.0833ZM18.1982 18.5833C20.7116 18.5833 21.9647 15.5807 20.3735 13.7078L19.2304 14.679C20.0504 15.6442 19.3465 17.0833 18.1982 17.0833V18.5833ZM19.119 8.17529C18.6415 3.95987 15.1661 0.75 11 0.75V2.25C14.3684 2.25 17.233 4.85212 17.6285 8.34413L19.119 8.17529ZM4.37148 8.34413C4.76706 4.85212 7.6316 2.25 11 2.25V0.75C6.83395 0.75 3.35854 3.95987 2.88101 8.17529L4.37148 8.34413ZM13.7977 19.9035C13.4022 20.9588 12.3154 21.75 11 21.75V23.25C12.9163 23.25 14.5789 22.0934 15.2023 20.4299L13.7977 19.9035ZM11 21.75C9.68459 21.75 8.5978 20.9588 8.2023 19.9035L6.79771 20.4299C7.42114 22.0934 9.08369 23.25 11 23.25V21.75Z" fill="#949494"/>
</svg>
