<svg width="28" height="28" viewBox="0 0 28 28" fill="none" xmlns="http://www.w3.org/2000/svg">
<g clip-path="url(#clip0_0_21)">
<path d="M5.19808 16.1934L4.62651 15.7078L4.62651 15.7078L5.19808 16.1934ZM6.22389 13.8116L5.47865 13.7272L6.22389 13.8116ZM21.7761 13.8116L22.5214 13.7272L22.5214 13.7272L21.7761 13.8116ZM22.8019 16.1934L23.3735 15.7078L23.3735 15.7078L22.8019 16.1934ZM21.3738 10.2597L20.6285 10.3441L20.6285 10.3441L21.3738 10.2597ZM6.62624 10.2597L7.37148 10.3441L7.37148 10.3441L6.62624 10.2597ZM18.2023 22.4299C18.3477 22.042 18.1511 21.6097 17.7632 21.4644C17.3753 21.319 16.9431 21.5156 16.7977 21.9035L18.2023 22.4299ZM11.2023 21.9035C11.0569 21.5156 10.6247 21.319 10.2368 21.4644C9.84893 21.6097 9.65234 22.042 9.7977 22.4299L11.2023 21.9035ZM21.1982 19.0833H6.80183V20.5833H21.1982V19.0833ZM20.6285 10.3441L21.0309 13.896L22.5214 13.7272L22.119 10.1753L20.6285 10.3441ZM6.96912 13.896L7.37148 10.3441L5.88101 10.1753L5.47865 13.7272L6.96912 13.896ZM5.76964 16.679C6.43547 15.8953 6.8526 14.9246 6.96912 13.896L5.47865 13.7272C5.39522 14.4637 5.09695 15.1541 4.62651 15.7078L5.76964 16.679ZM21.0309 13.896C21.1474 14.9246 21.5645 15.8953 22.2304 16.679L23.3735 15.7078C22.9031 15.1541 22.6048 14.4637 22.5214 13.7272L21.0309 13.896ZM6.80183 19.0833C5.65348 19.0833 4.94961 17.6442 5.76964 16.679L4.62651 15.7078C3.03526 17.5807 4.28842 20.5833 6.80183 20.5833V19.0833ZM21.1982 20.5833C23.7116 20.5833 24.9647 17.5807 23.3735 15.7078L22.2304 16.679C23.0504 17.6442 22.3465 19.0833 21.1982 19.0833V20.5833ZM22.119 10.1753C21.6415 5.95987 18.1661 2.75 14 2.75V4.25C17.3684 4.25 20.233 6.85212 20.6285 10.3441L22.119 10.1753ZM7.37148 10.3441C7.76705 6.85212 10.6316 4.25 14 4.25V2.75C9.83395 2.75 6.35853 5.95987 5.88101 10.1753L7.37148 10.3441ZM16.7977 21.9035C16.4022 22.9588 15.3154 23.75 14 23.75V25.25C15.9163 25.25 17.5789 24.0934 18.2023 22.4299L16.7977 21.9035ZM14 23.75C12.6846 23.75 11.5978 22.9588 11.2023 21.9035L9.7977 22.4299C10.4211 24.0934 12.0837 25.25 14 25.25V23.75Z" fill="#949494"/>
</g>
<defs>
<clipPath id="clip0_0_21">
<rect width="28" height="28" fill="white"/>
</clipPath>
</defs>
</svg>
